<?xml version="1.0" standalone="no"?>
<!DOCTYPE svg PUBLIC "-//W3C//DTD SVG 20010904//EN"
 "http://www.w3.org/TR/2001/REC-SVG-20010904/DTD/svg10.dtd">
<svg version="1.0" xmlns="http://www.w3.org/2000/svg"
 width="720.000000pt" height="720.000000pt" viewBox="0 0 720.000000 720.000000"
 preserveAspectRatio="xMidYMid meet">

<g transform="translate(0.000000,720.000000) scale(0.100000,-0.100000)"
fill="#000000" stroke="none">
<path d="M3886 5409 c3 -6 -2 -9 -12 -7 -17 3 -19 -5 -22 -67 -2 -38 -6 -73
-10 -77 -4 -4 -36 -8 -72 -9 -36 -2 -71 -7 -77 -12 -10 -7 -13 -129 -13 -548
0 -360 -3 -540 -10 -544 -6 -4 -37 -6 -70 -6 -82 0 -93 -12 -88 -100 3 -60 2
-67 -14 -64 -10 2 -18 1 -18 -3 0 -4 -46 -7 -102 -7 l-103 0 -5 -79 -5 -79
-110 2 c-61 1 -117 -1 -126 -4 -10 -4 -15 -25 -17 -78 -2 -39 -7 -76 -12 -81
-5 -5 -40 -8 -79 -7 -67 2 -71 1 -77 -23 -3 -14 -4 -52 -2 -85 l3 -61 -160 0
-160 0 3 69 c5 91 -5 101 -104 101 l-74 0 0 74 c0 50 -4 77 -14 85 -7 6 -43
11 -80 10 -37 -1 -69 0 -71 3 -2 2 -5 74 -6 160 0 129 -3 157 -16 162 -8 3
-48 6 -88 6 -57 0 -74 -3 -79 -16 -9 -23 -7 -987 2 -1001 4 -7 38 -13 82 -15
l75 -3 3 -73 c3 -66 5 -74 27 -84 19 -8 28 -8 42 3 11 9 14 10 9 2 -5 -10 4
-13 37 -13 53 0 57 -6 57 -95 0 -71 17 -98 47 -74 10 9 14 9 10 2 -6 -9 9 -13
54 -15 l62 -3 -2 -72 c-2 -74 8 -95 35 -72 12 10 13 9 8 -5 -5 -14 5 -16 90
-16 76 0 98 -3 108 -16 7 -9 25 -30 41 -46 15 -16 27 -33 27 -38 0 -5 5 -12
12 -16 7 -5 8 -2 3 7 -6 10 -5 11 4 3 8 -8 12 -103 12 -353 -1 -216 3 -350 10
-362 9 -18 22 -20 167 -18 86 0 164 5 173 9 13 7 17 26 18 83 2 82 -10 103
-54 95 -14 -3 -25 -2 -25 1 0 3 -22 4 -49 3 -56 -4 -59 2 -53 98 l4 55 73 1
c97 0 105 8 105 98 l0 71 75 0 c76 1 101 9 75 25 -12 8 -12 10 3 10 17 0 18 7
15 65 -1 36 -1 66 2 66 3 1 33 2 68 3 l62 2 0 -60 c0 -70 8 -108 21 -100 5 3
9 1 9 -4 0 -6 30 -10 67 -11 36 0 68 -2 69 -4 2 -2 4 -112 4 -245 1 -217 3
-243 18 -251 24 -13 308 -14 331 -2 14 8 18 23 20 77 3 105 4 104 -95 104
l-84 0 0 320 c0 176 -1 323 -2 327 -2 4 33 7 77 8 64 0 80 3 80 15 1 8 6 14
13 12 8 -1 12 19 12 70 l0 73 67 -2 c99 -2 104 5 103 137 -1 58 -1 110 -1 115
1 6 24 9 56 7 36 -3 61 1 72 10 12 9 15 9 9 1 -4 -7 -3 -13 3 -13 24 0 29 51
30 319 l1 284 61 -1 c40 0 65 -5 70 -14 5 -7 9 -41 9 -75 0 -94 -1 -93 94 -93
50 0 87 5 94 12 15 15 17 310 2 339 -10 17 -23 19 -160 19 -81 0 -154 2 -162
5 -10 4 -12 37 -10 155 l3 150 328 0 329 0 6 23 c9 35 7 109 -3 102 -5 -3 -13
0 -17 6 -4 7 -3 9 3 6 13 -8 26 20 17 35 -4 5 -17 8 -30 5 -13 -2 -21 0 -18 4
3 5 -3 8 -13 7 -10 0 -113 0 -230 0 l-211 2 -4 75 -3 75 420 2 420 3 3 379 c2
283 -1 382 -10 393 -8 10 -28 14 -62 13 -28 -2 -60 -2 -71 -1 -23 1 -49 47
-33 58 7 4 8 1 3 -8 -5 -8 -4 -11 0 -6 12 10 6 99 -7 115 -14 16 -1332 17
-1322 1z m499 -18 c3 -5 2 -12 -3 -15 -5 -3 -9 1 -9 9 0 17 3 19 12 6z m320 0
c3 -5 2 -12 -3 -15 -5 -3 -9 1 -9 9 0 17 3 19 12 6z m-965 -161 c0 -5 -5 -10
-11 -10 -5 0 -7 5 -4 10 3 6 8 10 11 10 2 0 4 -4 4 -10z m160 -15 c0 -8 -2
-15 -4 -15 -2 0 -6 7 -10 15 -3 8 -1 15 4 15 6 0 10 -7 10 -15z m290 -150 l0
-81 -67 4 c-38 2 -70 6 -72 8 -5 4 -2 135 3 143 2 3 34 6 70 6 l66 0 0 -80z
m157 -927 c-3 -8 -6 -5 -6 6 -1 11 2 17 5 13 3 -3 4 -12 1 -19z m-846 -191
c-6 -8 -7 -18 -3 -22 4 -5 1 -5 -6 -1 -10 6 -10 11 -1 22 6 8 14 14 16 14 3 0
0 -6 -6 -13z m-226 -175 c-3 -3 -11 0 -18 7 -9 10 -8 11 6 5 10 -3 15 -9 12
-12z m-239 -137 c-1 -8 -5 -17 -8 -21 -5 -4 -4 16 1 34 3 9 9 -1 7 -13z m1471
9 c-3 -3 -12 -4 -19 -1 -8 3 -5 6 6 6 11 1 17 -2 13 -5z m-323 -852 c3 -5 -1
-9 -9 -9 -8 0 -12 4 -9 9 3 4 7 8 9 8 2 0 6 -4 9 -8z m-1409 -190 c-3 -3 -11
0 -18 7 -9 10 -8 11 6 5 10 -3 15 -9 12 -12z m550 -312 c-3 -5 -12 -10 -18
-10 -7 0 -6 4 3 10 19 12 23 12 15 0z m262 -6 c-3 -3 -12 -4 -19 -1 -8 3 -5 6
6 6 11 1 17 -2 13 -5z m-512 -144 c3 -6 -1 -7 -9 -4 -18 7 -21 14 -7 14 6 0
13 -4 16 -10z m-15 -20 c8 -5 11 -10 5 -10 -5 0 -17 5 -25 10 -8 5 -10 10 -5
10 6 0 17 -5 25 -10z m970 -295 c7 -9 8 -15 2 -15 -5 0 -12 7 -16 15 -3 8 -4
15 -2 15 2 0 9 -7 16 -15z m-315 -45 c3 -5 1 -10 -4 -10 -6 0 -11 5 -11 10 0
6 2 10 4 10 3 0 8 -4 11 -10z"/>
</g>
</svg>
